<svg width="24" height="24" viewBox="0 0 24 24" fill="none" xmlns="http://www.w3.org/2000/svg">
<path d="M20.7454 3.25741C19.6203 2.13276 18.0945 1.50098 16.5037 1.50098C14.9129 1.50098 13.3871 2.13276 12.262 3.25741L5.6901 9.7496C5.55038 9.88851 5.43958 10.0537 5.36411 10.2357C5.28864 10.4177 5.25 10.6129 5.25042 10.8099V17.6893L2.46979 20.469C2.40011 20.5387 2.34483 20.6214 2.30712 20.7124C2.26941 20.8035 2.25 20.9011 2.25 20.9996C2.25 21.0981 2.26941 21.1957 2.30712 21.2868C2.34483 21.3778 2.40011 21.4605 2.46979 21.5302C2.61052 21.671 2.80139 21.75 3.00042 21.75C3.09896 21.75 3.19654 21.7306 3.28759 21.6929C3.37863 21.6552 3.46136 21.5999 3.53104 21.5302L6.31167 18.7496H13.191C13.3878 18.7499 13.5827 18.7113 13.7645 18.636C13.9464 18.5607 14.1115 18.4502 14.2504 18.3109L20.7407 11.7484C21.299 11.1914 21.7421 10.5299 22.0445 9.80155C22.3469 9.07324 22.5028 8.29246 22.5033 7.50385C22.5037 6.71525 22.3487 5.9343 22.047 5.20565C21.7454 4.47701 21.3031 3.81498 20.7454 3.25741ZM13.3195 4.31773C14.148 3.48886 15.2672 3.01591 16.439 2.99946C17.6108 2.983 18.7428 3.42435 19.5943 4.22964C20.4457 5.03492 20.9494 6.1406 20.9983 7.31153C21.0471 8.48245 20.6372 9.62623 19.8557 10.4996H14.5626L17.7829 7.28023C17.9236 7.1395 18.0027 6.94862 18.0027 6.7496C18.0027 6.55058 17.9236 6.35971 17.7829 6.21898C17.6422 6.07825 17.4513 5.99918 17.2523 5.99918C17.0533 5.99918 16.8624 6.07825 16.7217 6.21898L11.2504 11.6893V6.36241L13.3195 4.31773ZM6.75042 10.8137L9.75042 7.8446V13.1884L6.75042 16.1884V10.8137ZM13.191 17.2496H7.81167L13.0617 11.9996H18.381L13.191 17.2496Z" fill="#444444"/>
</svg>
