<svg width="24" height="24" viewBox="0 0 24 24" fill="none" xmlns="http://www.w3.org/2000/svg">
<path d="M11.9961 12.001V9.50098L19.4961 2.00098L21.9961 4.50098L14.4961 12.001H11.9961Z" stroke="#444444" stroke-width="1.66667" stroke-linecap="round" stroke-linejoin="round"/>
<path d="M7.99805 12.002H4.49805C3.83501 12.002 3.19912 12.2653 2.73028 12.7342C2.26144 13.203 1.99805 13.8389 1.99805 14.502C1.99805 15.165 2.26144 15.8009 2.73028 16.2697C3.19912 16.7386 3.83501 17.002 4.49805 17.002H19.498C20.1611 17.002 20.797 17.2653 21.2658 17.7342C21.7347 18.203 21.998 18.8389 21.998 19.502C21.998 20.165 21.7347 20.8009 21.2658 21.2697C20.797 21.7386 20.1611 22.002 19.498 22.002H8.99805" stroke="#444444" stroke-width="1.66667" stroke-linecap="round" stroke-linejoin="round"/>
</svg>
