<svg width="24" height="24" viewBox="0 0 24 24" fill="none" xmlns="http://www.w3.org/2000/svg">
<path d="M6.51495 2C5.21095 2.129 4.33295 2.419 3.67695 3.076C2.50195 4.253 2.50195 6.148 2.50195 9.939V13.959C2.50195 17.749 2.50195 19.645 3.67695 20.823C4.85195 22.001 6.74395 22 10.527 22H12.534C16.317 22 18.209 22 19.384 20.823C20.451 19.753 20.55 18.106 20.559 14.977" stroke="#444444" stroke-width="1.5" stroke-linecap="round" stroke-linejoin="round"/>
<path d="M10.5277 6.99968L11.5307 10.4997C12.0907 11.6097 12.7937 11.8997 14.5407 11.9997C15.9297 11.9657 16.7357 11.8017 17.4237 11.2037C17.8927 10.7957 18.1047 10.1807 18.2077 9.56868L18.5517 7.49968M21.0597 5.49968V10.4997M8.60267 4.93268C10.1897 3.61568 11.6037 2.90868 14.5367 2.13068C14.8676 2.04332 15.2157 2.04504 15.5457 2.13568C18.1417 2.84968 19.5437 3.48368 21.4217 4.89368C21.5017 4.95368 21.5257 5.06568 21.4697 5.14868C20.8567 6.05068 19.4877 6.78168 16.1297 8.08368C15.4302 8.35281 14.6551 8.34852 13.9587 8.07168C10.3827 6.65168 8.73867 5.89168 8.53867 5.10268C8.53217 5.07119 8.53473 5.0385 8.54606 5.00841C8.55739 4.97832 8.57701 4.95206 8.60267 4.93268Z" stroke="#444444" stroke-width="1.5" stroke-linecap="round" stroke-linejoin="round"/>
</svg>
