<svg width="24" height="24" viewBox="0 0 24 24" fill="none" xmlns="http://www.w3.org/2000/svg">
<mask id="mask0_449_254" style="mask-type:luminance" maskUnits="userSpaceOnUse" x="-1" y="-1" width="18" height="18">
<path d="M14.2222 9.77734H1.77778C0.795938 9.77734 0 10.5733 0 11.5551V14.2218C0 15.2036 0.795938 15.9996 1.77778 15.9996H14.2222C15.2041 15.9996 16 15.2036 16 14.2218V11.5551C16 10.5733 15.2041 9.77734 14.2222 9.77734Z" stroke="white" stroke-width="2"/>
<path d="M6.22222 0.444336H1.77778C1.30628 0.444336 0.854097 0.631637 0.520699 0.965035C0.187301 1.29843 0 1.75062 0 2.22211V4.88878C0 5.36028 0.187301 5.81246 0.520699 6.14586C0.854097 6.47926 1.30628 6.66656 1.77778 6.66656H6.22222" stroke="white" stroke-width="2" stroke-linecap="round"/>
<path d="M12.4442 7.11111C14.4079 7.11111 15.9998 5.51923 15.9998 3.55556C15.9998 1.59188 14.4079 0 12.4442 0C10.4805 0 8.88867 1.59188 8.88867 3.55556C8.88867 5.51923 10.4805 7.11111 12.4442 7.11111Z" fill="white" stroke="white" stroke-width="2"/>
<path d="M12.4447 4.88932C13.181 4.88932 13.778 4.29237 13.778 3.55599C13.778 2.81961 13.181 2.22266 12.4447 2.22266C11.7083 2.22266 11.1113 2.81961 11.1113 3.55599C11.1113 4.29237 11.7083 4.88932 12.4447 4.88932Z" fill="black"/>
</mask>
<g mask="url(#mask0_449_254)">
</g>
<path d="M3.33079 22.2844L10.2923 15.3229M19.0587 12.2272L16.9749 18.4787C16.9416 18.579 16.8847 18.6697 16.8089 18.7432C16.7331 18.8167 16.6407 18.8708 16.5395 18.901L3.76507 22.6979C3.64998 22.7321 3.52772 22.734 3.4116 22.7035C3.29548 22.6731 3.18994 22.6113 3.10647 22.525C3.023 22.4387 2.96479 22.3312 2.93819 22.2141C2.91159 22.0971 2.91761 21.9749 2.95559 21.8611L7.10362 9.41916C7.13334 9.32983 7.18194 9.24794 7.24612 9.17904C7.31029 9.11015 7.38854 9.05587 7.47554 9.01989L13.3683 6.59365C13.4881 6.54417 13.6199 6.53127 13.747 6.55658C13.8741 6.58189 13.9909 6.64427 14.0826 6.73585L18.9001 11.5555C18.9863 11.6417 19.0468 11.7502 19.0748 11.8688C19.1028 11.9874 19.0973 12.1115 19.0587 12.2272Z" stroke="#444444" stroke-width="1.5" stroke-linecap="round" stroke-linejoin="round"/>
<path d="M19.1889 11.8419L22.2824 8.74725C22.6926 8.33699 22.923 7.78062 22.923 7.2005C22.923 6.62038 22.6926 6.06401 22.2824 5.65374L19.9634 3.3325C19.7602 3.12926 19.519 2.96803 19.2535 2.85803C18.988 2.74802 18.7035 2.69141 18.4161 2.69141C18.1287 2.69141 17.8441 2.74802 17.5786 2.85803C17.3132 2.96803 17.0719 3.12926 16.8688 3.3325L13.7753 6.42712M12.6135 13.0014C12.4611 12.849 12.2802 12.7282 12.0811 12.6458C11.882 12.5634 11.6686 12.521 11.4531 12.521C11.2376 12.5211 11.0242 12.5636 10.8251 12.6461C10.6261 12.7286 10.4452 12.8495 10.2929 13.0019C10.1405 13.1543 10.0197 13.3353 9.93726 13.5344C9.85484 13.7335 9.81245 13.9469 9.8125 14.1624C9.81255 14.3779 9.85505 14.5913 9.93756 14.7903C10.0201 14.9894 10.141 15.1703 10.2934 15.3226C10.6012 15.6303 11.0186 15.8031 11.4539 15.803C11.8891 15.8029 12.3064 15.6299 12.6141 15.3221C12.9218 15.0143 13.0945 14.5968 13.0944 14.1616C13.0943 13.7264 12.9214 13.3091 12.6135 13.0014Z" stroke="#444444" stroke-width="1.5" stroke-linecap="round" stroke-linejoin="round"/>
</svg>
