<svg width="22" height="22" viewBox="0 0 22 22" fill="none" xmlns="http://www.w3.org/2000/svg">
<path d="M16 14H11M6 9L6.234 9.195C7.516 10.263 8.157 10.797 8.157 11.5C8.157 12.203 7.517 12.737 6.234 13.805L6 14" stroke="#444444" stroke-width="1.5" stroke-linecap="round"/>
<path d="M21 11C21 15.714 21 18.071 19.535 19.535C18.072 21 15.714 21 11 21C6.286 21 3.929 21 2.464 19.535C1 18.072 1 15.714 1 11C1 6.286 1 3.929 2.464 2.464C3.93 1 6.286 1 11 1C15.714 1 18.071 1 19.535 2.464C20.509 3.438 20.835 4.807 20.945 7" stroke="#444444" stroke-width="1.5" stroke-linecap="round"/>
</svg>
