<svg width="24" height="24" viewBox="0 0 24 24" fill="none" xmlns="http://www.w3.org/2000/svg">
<path d="M9 21.75H15M13.5 7.5L11.25 9.75L12.75 11.25L10.5 13.5M19.5 9.75V11.25C19.5 12.45 18.4995 13.7505 18 14.25L15.75 16.5L15 18.75H9L8.25 16.5L6 14.25C5.5005 13.7505 4.5 12.45 4.5 11.25V9.75C4.5 7.76088 5.29018 5.85322 6.6967 4.4467C8.10322 3.04018 10.0109 2.25 12 2.25C13.9891 2.25 15.8968 3.04018 17.3033 4.4467C18.7098 5.85322 19.5 7.76088 19.5 9.75Z" stroke="#444444" stroke-width="1.9375"/>
</svg>
