<svg width="24" height="24" viewBox="0 0 24 24" fill="none" xmlns="http://www.w3.org/2000/svg">
<path d="M9.55556 5.88889L8.92489 7.59267C8.09867 9.82689 7.68556 10.944 6.87033 11.7592C6.05511 12.5744 4.938 12.9876 2.70378 13.8138L1 14.4444L2.70378 15.0751C4.938 15.9013 6.05511 16.3157 6.87033 17.1297C7.68556 17.9437 8.09867 19.062 8.92489 21.2962L9.55556 23L10.1862 21.2962C11.0124 19.062 11.4268 17.9449 12.2408 17.1297C13.0548 16.3144 14.1731 15.9013 16.4073 15.0751L18.1111 14.4444L16.4073 13.8138C14.1731 12.9876 13.056 12.5744 12.2408 11.7592C11.4256 10.944 11.0124 9.82689 10.1862 7.59267L9.55556 5.88889ZM19.3333 1L19.0632 1.72967C18.7088 2.68789 18.5316 3.167 18.1832 3.51533C17.8337 3.86489 17.3546 4.04211 16.3963 4.39533L15.6667 4.66667L16.3976 4.93678C17.3546 5.29122 17.8337 5.46844 18.182 5.81678C18.5316 6.16633 18.7088 6.64544 19.062 7.60367L19.3333 8.33333L19.6034 7.60367C19.9579 6.64544 20.1351 6.16633 20.4834 5.818C20.833 5.46844 21.3121 5.29122 22.2703 4.938L23 4.66667L22.2691 4.39656C21.3121 4.04211 20.833 3.86489 20.4847 3.51656C20.1351 3.167 19.9579 2.68789 19.6047 1.72967L19.3333 1Z" stroke="#444444" stroke-width="1.83333" stroke-linecap="round" stroke-linejoin="round"/>
</svg>
