<svg width="100" height="100" viewBox="0 0 100 100" fill="none" xmlns="http://www.w3.org/2000/svg">
<rect width="99.4106" height="99.4106" rx="49.7053" fill="#5A189A"/>
<path fill-rule="evenodd" clip-rule="evenodd" d="M50.3911 16.8705C50.3418 16.8699 50.2925 16.8693 50.2431 16.8689C50.1936 16.8684 50.1441 16.8681 50.0946 16.8679C48.3633 34.3068 34.3383 48.0796 16.8708 49.494C16.8702 49.5433 16.8696 49.5925 16.8692 49.6418C16.8687 49.6915 16.8684 49.7411 16.8681 49.7908C34.3068 51.5222 48.0793 65.547 49.4939 83.0141C49.5433 83.0147 49.5927 83.0153 49.6421 83.0158C49.6916 83.0162 49.7411 83.0165 49.7905 83.0168C51.5222 65.5782 65.5472 51.8059 83.0144 50.3915C83.015 50.342 83.0156 50.2924 83.016 50.2428C83.0165 50.1934 83.0168 50.1439 83.0171 50.0945C65.5781 48.3631 51.8054 34.338 50.3911 16.8705Z" fill="white"/>
</svg>
