<svg width="544" height="349" viewBox="0 0 544 349" fill="none" xmlns="http://www.w3.org/2000/svg">
<rect x="42" y="121" width="177" height="105" rx="12" fill="#0B0C0C"/>
<rect x="43" y="122" width="175" height="103" rx="11" stroke="#3C3C3C" stroke-opacity="0.5" stroke-width="2"/>
<path d="M89.25 155.55H82.5M75.75 148.8L76.0659 149.063C77.7966 150.505 78.6619 151.226 78.6619 152.175C78.6619 153.124 77.798 153.845 76.0659 155.287L75.75 155.55" stroke="#9D9C9C" stroke-width="2.025" stroke-linecap="round"/>
<path d="M96 151.5C96 157.864 96 161.046 94.0223 163.022C92.0472 165 88.8639 165 82.5 165C76.1361 165 72.9542 165 70.9764 163.022C69 161.047 69 157.864 69 151.5C69 145.136 69 141.954 70.9764 139.976C72.9555 138 76.1361 138 82.5 138C88.8639 138 92.0459 138 94.0223 139.976C95.3372 141.291 95.7773 143.139 95.9258 146.1" stroke="#9D9C9C" stroke-width="2.025" stroke-linecap="round"/>
<path d="M80.2784 185.438H77.7898C77.7443 185.116 77.6515 184.83 77.5114 184.58C77.3712 184.326 77.1913 184.11 76.9716 183.932C76.7519 183.754 76.4981 183.617 76.2102 183.523C75.9261 183.428 75.6174 183.381 75.2841 183.381C74.6818 183.381 74.1572 183.53 73.7102 183.83C73.2633 184.125 72.9167 184.557 72.6705 185.125C72.4242 185.689 72.3011 186.375 72.3011 187.182C72.3011 188.011 72.4242 188.708 72.6705 189.273C72.9205 189.837 73.2689 190.263 73.7159 190.551C74.1629 190.839 74.6799 190.983 75.267 190.983C75.5966 190.983 75.9015 190.939 76.1818 190.852C76.4659 190.765 76.7178 190.638 76.9375 190.472C77.1572 190.301 77.339 190.095 77.483 189.852C77.6307 189.61 77.733 189.333 77.7898 189.023L80.2784 189.034C80.214 189.568 80.053 190.083 79.7955 190.58C79.5417 191.072 79.1989 191.513 78.767 191.903C78.339 192.29 77.8277 192.597 77.233 192.824C76.642 193.047 75.9735 193.159 75.2273 193.159C74.1894 193.159 73.2614 192.924 72.4432 192.455C71.6288 191.985 70.9848 191.305 70.5114 190.415C70.0417 189.525 69.8068 188.447 69.8068 187.182C69.8068 185.913 70.0455 184.833 70.5227 183.943C71 183.053 71.6477 182.375 72.4659 181.909C73.2841 181.439 74.2045 181.205 75.2273 181.205C75.9015 181.205 76.5265 181.299 77.1023 181.489C77.6818 181.678 78.1951 181.955 78.642 182.318C79.089 182.678 79.4527 183.119 79.733 183.642C80.017 184.165 80.1989 184.763 80.2784 185.438ZM85.434 193.17C84.5514 193.17 83.7881 192.983 83.1442 192.608C82.504 192.229 82.0097 191.703 81.6612 191.028C81.3127 190.35 81.1385 189.564 81.1385 188.67C81.1385 187.769 81.3127 186.981 81.6612 186.307C82.0097 185.629 82.504 185.102 83.1442 184.727C83.7881 184.348 84.5514 184.159 85.434 184.159C86.3165 184.159 87.0779 184.348 87.718 184.727C88.362 185.102 88.8582 185.629 89.2067 186.307C89.5552 186.981 89.7294 187.769 89.7294 188.67C89.7294 189.564 89.5552 190.35 89.2067 191.028C88.8582 191.703 88.362 192.229 87.718 192.608C87.0779 192.983 86.3165 193.17 85.434 193.17ZM85.4453 191.295C85.8468 191.295 86.1821 191.182 86.451 190.955C86.7199 190.723 86.9226 190.409 87.059 190.011C87.1991 189.614 87.2692 189.161 87.2692 188.653C87.2692 188.146 87.1991 187.693 87.059 187.295C86.9226 186.898 86.7199 186.583 86.451 186.352C86.1821 186.121 85.8468 186.006 85.4453 186.006C85.04 186.006 84.6991 186.121 84.4226 186.352C84.1499 186.583 83.9434 186.898 83.8033 187.295C83.6669 187.693 83.5987 188.146 83.5987 188.653C83.5987 189.161 83.6669 189.614 83.8033 190.011C83.9434 190.409 84.1499 190.723 84.4226 190.955C84.6991 191.182 85.04 191.295 85.4453 191.295ZM96.3935 189.284V184.273H98.8139V193H96.4901V191.415H96.3992C96.2022 191.926 95.8745 192.337 95.4162 192.648C94.9617 192.958 94.4067 193.114 93.7514 193.114C93.1681 193.114 92.6548 192.981 92.2117 192.716C91.7685 192.451 91.4219 192.074 91.1719 191.585C90.9257 191.097 90.8007 190.511 90.7969 189.83V184.273H93.2173V189.398C93.2211 189.913 93.3594 190.32 93.6321 190.619C93.9048 190.919 94.2704 191.068 94.7287 191.068C95.0204 191.068 95.2931 191.002 95.5469 190.869C95.8007 190.733 96.0052 190.532 96.1605 190.267C96.3196 190.002 96.3973 189.674 96.3935 189.284ZM100.244 193V184.273H102.59V185.795H102.681C102.84 185.254 103.107 184.845 103.482 184.568C103.857 184.288 104.289 184.148 104.778 184.148C104.899 184.148 105.03 184.155 105.17 184.17C105.31 184.186 105.433 184.206 105.539 184.233V186.381C105.425 186.347 105.268 186.316 105.067 186.29C104.867 186.263 104.683 186.25 104.516 186.25C104.16 186.25 103.842 186.328 103.562 186.483C103.285 186.634 103.066 186.847 102.903 187.119C102.744 187.392 102.664 187.706 102.664 188.062V193H100.244ZM113.545 186.761L111.33 186.898C111.292 186.708 111.21 186.538 111.085 186.386C110.96 186.231 110.795 186.108 110.591 186.017C110.39 185.922 110.15 185.875 109.869 185.875C109.494 185.875 109.178 185.955 108.92 186.114C108.663 186.269 108.534 186.477 108.534 186.739C108.534 186.947 108.617 187.123 108.784 187.267C108.951 187.411 109.237 187.527 109.642 187.614L111.222 187.932C112.07 188.106 112.703 188.386 113.119 188.773C113.536 189.159 113.744 189.667 113.744 190.295C113.744 190.867 113.576 191.369 113.239 191.801C112.905 192.233 112.447 192.57 111.864 192.812C111.284 193.051 110.616 193.17 109.858 193.17C108.703 193.17 107.782 192.93 107.097 192.449C106.415 191.964 106.015 191.305 105.898 190.472L108.278 190.347C108.35 190.699 108.525 190.968 108.801 191.153C109.078 191.335 109.432 191.426 109.864 191.426C110.288 191.426 110.629 191.345 110.886 191.182C111.148 191.015 111.28 190.801 111.284 190.54C111.28 190.32 111.188 190.14 111.006 190C110.824 189.856 110.544 189.746 110.165 189.67L108.653 189.369C107.801 189.199 107.167 188.903 106.75 188.483C106.337 188.062 106.131 187.527 106.131 186.875C106.131 186.314 106.282 185.831 106.585 185.426C106.892 185.021 107.322 184.708 107.875 184.489C108.432 184.269 109.083 184.159 109.83 184.159C110.932 184.159 111.799 184.392 112.432 184.858C113.068 185.324 113.439 185.958 113.545 186.761ZM118.739 193.17C117.842 193.17 117.069 192.989 116.421 192.625C115.777 192.258 115.281 191.739 114.933 191.068C114.584 190.394 114.41 189.597 114.41 188.676C114.41 187.778 114.584 186.991 114.933 186.312C115.281 185.634 115.772 185.106 116.404 184.727C117.041 184.348 117.787 184.159 118.643 184.159C119.219 184.159 119.755 184.252 120.251 184.438C120.751 184.619 121.186 184.894 121.558 185.261C121.933 185.629 122.224 186.091 122.433 186.648C122.641 187.201 122.745 187.848 122.745 188.591V189.256H115.376V187.756H120.467C120.467 187.407 120.391 187.098 120.239 186.83C120.088 186.561 119.878 186.35 119.609 186.199C119.344 186.044 119.035 185.966 118.683 185.966C118.315 185.966 117.989 186.051 117.705 186.222C117.425 186.388 117.205 186.614 117.046 186.898C116.887 187.178 116.806 187.491 116.802 187.835V189.261C116.802 189.693 116.881 190.066 117.041 190.381C117.203 190.695 117.433 190.938 117.728 191.108C118.023 191.278 118.374 191.364 118.779 191.364C119.048 191.364 119.294 191.326 119.518 191.25C119.741 191.174 119.933 191.061 120.092 190.909C120.251 190.758 120.372 190.572 120.455 190.352L122.694 190.5C122.58 191.038 122.347 191.508 121.995 191.909C121.647 192.307 121.196 192.617 120.643 192.841C120.094 193.061 119.459 193.17 118.739 193.17ZM131.08 186.761L128.864 186.898C128.826 186.708 128.744 186.538 128.619 186.386C128.494 186.231 128.33 186.108 128.125 186.017C127.924 185.922 127.684 185.875 127.403 185.875C127.028 185.875 126.712 185.955 126.455 186.114C126.197 186.269 126.068 186.477 126.068 186.739C126.068 186.947 126.152 187.123 126.318 187.267C126.485 187.411 126.771 187.527 127.176 187.614L128.756 187.932C129.604 188.106 130.237 188.386 130.653 188.773C131.07 189.159 131.278 189.667 131.278 190.295C131.278 190.867 131.11 191.369 130.773 191.801C130.439 192.233 129.981 192.57 129.398 192.812C128.818 193.051 128.15 193.17 127.392 193.17C126.237 193.17 125.316 192.93 124.631 192.449C123.949 191.964 123.549 191.305 123.432 190.472L125.813 190.347C125.885 190.699 126.059 190.968 126.335 191.153C126.612 191.335 126.966 191.426 127.398 191.426C127.822 191.426 128.163 191.345 128.421 191.182C128.682 191.015 128.814 190.801 128.818 190.54C128.814 190.32 128.722 190.14 128.54 190C128.358 189.856 128.078 189.746 127.699 189.67L126.188 189.369C125.335 189.199 124.701 188.903 124.284 188.483C123.871 188.062 123.665 187.527 123.665 186.875C123.665 186.314 123.816 185.831 124.119 185.426C124.426 185.021 124.856 184.708 125.409 184.489C125.966 184.269 126.617 184.159 127.364 184.159C128.466 184.159 129.333 184.392 129.966 184.858C130.602 185.324 130.974 185.958 131.08 186.761Z" fill="#9D9C9C"/>
<rect x="235" y="121" width="177" height="105" rx="12" fill="#0B0C0C"/>
<rect x="236" y="122" width="175" height="103" rx="11" stroke="#3C3C3C" stroke-opacity="0.5" stroke-width="2"/>
<path d="M265.017 191H262.381L266.398 179.364H269.568L273.58 191H270.943L268.028 182.023H267.938L265.017 191ZM264.852 186.426H271.08V188.347H264.852V186.426ZM277.954 194.455C277.17 194.455 276.497 194.347 275.937 194.131C275.38 193.919 274.937 193.629 274.607 193.261C274.278 192.894 274.064 192.481 273.965 192.023L276.204 191.722C276.272 191.896 276.38 192.059 276.528 192.21C276.675 192.362 276.871 192.483 277.113 192.574C277.359 192.669 277.658 192.716 278.011 192.716C278.537 192.716 278.971 192.587 279.312 192.33C279.656 192.076 279.829 191.65 279.829 191.051V189.455H279.727C279.621 189.697 279.461 189.926 279.249 190.142C279.037 190.358 278.764 190.534 278.431 190.67C278.098 190.807 277.7 190.875 277.238 190.875C276.583 190.875 275.986 190.723 275.448 190.42C274.914 190.114 274.488 189.646 274.17 189.017C273.855 188.384 273.698 187.585 273.698 186.619C273.698 185.631 273.859 184.805 274.181 184.142C274.503 183.479 274.931 182.983 275.465 182.653C276.003 182.324 276.592 182.159 277.232 182.159C277.721 182.159 278.13 182.242 278.46 182.409C278.789 182.572 279.054 182.777 279.255 183.023C279.46 183.265 279.617 183.504 279.727 183.739H279.817V182.273H282.221V191.085C282.221 191.828 282.039 192.449 281.675 192.949C281.312 193.449 280.808 193.824 280.164 194.074C279.524 194.328 278.787 194.455 277.954 194.455ZM278.005 189.057C278.395 189.057 278.725 188.96 278.994 188.767C279.266 188.57 279.475 188.29 279.619 187.926C279.766 187.559 279.84 187.119 279.84 186.608C279.84 186.097 279.768 185.653 279.624 185.278C279.48 184.9 279.272 184.606 278.999 184.398C278.727 184.189 278.395 184.085 278.005 184.085C277.607 184.085 277.272 184.193 276.999 184.409C276.727 184.621 276.52 184.917 276.38 185.295C276.24 185.674 276.17 186.112 276.17 186.608C276.17 187.112 276.24 187.547 276.38 187.915C276.524 188.278 276.73 188.561 276.999 188.761C277.272 188.958 277.607 189.057 278.005 189.057ZM287.618 191.17C286.72 191.17 285.947 190.989 285.3 190.625C284.656 190.258 284.16 189.739 283.811 189.068C283.463 188.394 283.288 187.597 283.288 186.676C283.288 185.778 283.463 184.991 283.811 184.312C284.16 183.634 284.65 183.106 285.283 182.727C285.919 182.348 286.665 182.159 287.521 182.159C288.097 182.159 288.633 182.252 289.129 182.438C289.629 182.619 290.065 182.894 290.436 183.261C290.811 183.629 291.103 184.091 291.311 184.648C291.519 185.201 291.624 185.848 291.624 186.591V187.256H284.254V185.756H289.345C289.345 185.407 289.269 185.098 289.118 184.83C288.966 184.561 288.756 184.35 288.487 184.199C288.222 184.044 287.913 183.966 287.561 183.966C287.194 183.966 286.868 184.051 286.584 184.222C286.304 184.388 286.084 184.614 285.925 184.898C285.766 185.178 285.684 185.491 285.68 185.835V187.261C285.68 187.693 285.76 188.066 285.919 188.381C286.082 188.695 286.311 188.938 286.607 189.108C286.902 189.278 287.252 189.364 287.658 189.364C287.927 189.364 288.173 189.326 288.396 189.25C288.62 189.174 288.811 189.061 288.97 188.909C289.129 188.758 289.25 188.572 289.334 188.352L291.572 188.5C291.459 189.038 291.226 189.508 290.874 189.909C290.525 190.307 290.074 190.617 289.521 190.841C288.972 191.061 288.338 191.17 287.618 191.17ZM295.117 185.955V191H292.697V182.273H295.004V183.812H295.106C295.299 183.305 295.623 182.903 296.077 182.608C296.532 182.309 297.083 182.159 297.731 182.159C298.337 182.159 298.865 182.292 299.316 182.557C299.767 182.822 300.117 183.201 300.367 183.693C300.617 184.182 300.742 184.765 300.742 185.443V191H298.322V185.875C298.326 185.341 298.189 184.924 297.913 184.625C297.636 184.322 297.255 184.17 296.771 184.17C296.445 184.17 296.157 184.241 295.907 184.381C295.661 184.521 295.468 184.725 295.327 184.994C295.191 185.259 295.121 185.58 295.117 185.955ZM306.087 191.17C305.193 191.17 304.424 190.981 303.78 190.602C303.14 190.22 302.647 189.689 302.303 189.011C301.962 188.333 301.791 187.553 301.791 186.67C301.791 185.777 301.964 184.992 302.308 184.318C302.657 183.64 303.151 183.112 303.791 182.733C304.431 182.35 305.193 182.159 306.075 182.159C306.837 182.159 307.503 182.297 308.075 182.574C308.647 182.85 309.1 183.239 309.433 183.739C309.767 184.239 309.95 184.826 309.984 185.5H307.7C307.636 185.064 307.465 184.714 307.189 184.449C306.916 184.18 306.558 184.045 306.115 184.045C305.74 184.045 305.412 184.148 305.132 184.352C304.856 184.553 304.64 184.847 304.484 185.233C304.329 185.619 304.251 186.087 304.251 186.636C304.251 187.193 304.327 187.667 304.479 188.057C304.634 188.447 304.852 188.744 305.132 188.949C305.412 189.153 305.74 189.256 306.115 189.256C306.392 189.256 306.64 189.199 306.859 189.085C307.083 188.972 307.267 188.807 307.411 188.591C307.558 188.371 307.655 188.108 307.7 187.801H309.984C309.947 188.468 309.765 189.055 309.439 189.562C309.117 190.066 308.672 190.46 308.104 190.744C307.536 191.028 306.863 191.17 306.087 191.17ZM311.028 191V182.273H313.448V191H311.028ZM312.244 181.148C311.884 181.148 311.575 181.028 311.318 180.79C311.064 180.547 310.937 180.258 310.937 179.92C310.937 179.587 311.064 179.301 311.318 179.062C311.575 178.82 311.884 178.699 312.244 178.699C312.604 178.699 312.91 178.82 313.164 179.062C313.422 179.301 313.55 179.587 313.55 179.92C313.55 180.258 313.422 180.547 313.164 180.79C312.91 181.028 312.604 181.148 312.244 181.148ZM318.858 191.17C317.96 191.17 317.188 190.989 316.54 190.625C315.896 190.258 315.4 189.739 315.051 189.068C314.703 188.394 314.528 187.597 314.528 186.676C314.528 185.778 314.703 184.991 315.051 184.312C315.4 183.634 315.89 183.106 316.523 182.727C317.159 182.348 317.905 182.159 318.761 182.159C319.337 182.159 319.873 182.252 320.369 182.438C320.869 182.619 321.305 182.894 321.676 183.261C322.051 183.629 322.343 184.091 322.551 184.648C322.76 185.201 322.864 185.848 322.864 186.591V187.256H315.494V185.756H320.585C320.585 185.407 320.51 185.098 320.358 184.83C320.206 184.561 319.996 184.35 319.727 184.199C319.462 184.044 319.153 183.966 318.801 183.966C318.434 183.966 318.108 184.051 317.824 184.222C317.544 184.388 317.324 184.614 317.165 184.898C317.006 185.178 316.924 185.491 316.921 185.835V187.261C316.921 187.693 317 188.066 317.159 188.381C317.322 188.695 317.551 188.938 317.847 189.108C318.142 189.278 318.492 189.364 318.898 189.364C319.167 189.364 319.413 189.326 319.636 189.25C319.86 189.174 320.051 189.061 320.21 188.909C320.369 188.758 320.491 188.572 320.574 188.352L322.813 188.5C322.699 189.038 322.466 189.508 322.114 189.909C321.765 190.307 321.314 190.617 320.761 190.841C320.212 191.061 319.578 191.17 318.858 191.17ZM331.198 184.761L328.982 184.898C328.944 184.708 328.863 184.538 328.738 184.386C328.613 184.231 328.448 184.108 328.244 184.017C328.043 183.922 327.802 183.875 327.522 183.875C327.147 183.875 326.831 183.955 326.573 184.114C326.316 184.269 326.187 184.477 326.187 184.739C326.187 184.947 326.27 185.123 326.437 185.267C326.604 185.411 326.89 185.527 327.295 185.614L328.874 185.932C329.723 186.106 330.355 186.386 330.772 186.773C331.189 187.159 331.397 187.667 331.397 188.295C331.397 188.867 331.229 189.369 330.891 189.801C330.558 190.233 330.1 190.57 329.516 190.812C328.937 191.051 328.268 191.17 327.511 191.17C326.355 191.17 325.435 190.93 324.749 190.449C324.068 189.964 323.668 189.305 323.55 188.472L325.931 188.347C326.003 188.699 326.177 188.968 326.454 189.153C326.73 189.335 327.085 189.426 327.516 189.426C327.941 189.426 328.282 189.345 328.539 189.182C328.8 189.015 328.933 188.801 328.937 188.54C328.933 188.32 328.84 188.14 328.658 188C328.477 187.856 328.196 187.746 327.818 187.67L326.306 187.369C325.454 187.199 324.819 186.903 324.403 186.483C323.99 186.062 323.783 185.527 323.783 184.875C323.783 184.314 323.935 183.831 324.238 183.426C324.545 183.021 324.975 182.708 325.528 182.489C326.085 182.269 326.736 182.159 327.482 182.159C328.585 182.159 329.452 182.392 330.085 182.858C330.721 183.324 331.092 183.958 331.198 184.761Z" fill="#9D9C9C"/>
<mask id="mask0_523_78" style="mask-type:luminance" maskUnits="userSpaceOnUse" x="263" y="139" width="18" height="18">
<path d="M278.222 149.777H265.778C264.796 149.777 264 150.573 264 151.555V154.222C264 155.204 264.796 156 265.778 156H278.222C279.204 156 280 155.204 280 154.222V151.555C280 150.573 279.204 149.777 278.222 149.777Z" stroke="white" stroke-width="2"/>
<path d="M270.222 140.444H265.778C265.306 140.444 264.854 140.632 264.521 140.965C264.187 141.298 264 141.751 264 142.222V144.889C264 145.36 264.187 145.812 264.521 146.146C264.854 146.479 265.306 146.667 265.778 146.667H270.222" stroke="white" stroke-width="2" stroke-linecap="round"/>
<path d="M276.444 147.111C278.408 147.111 280 145.519 280 143.556C280 141.592 278.408 140 276.444 140C274.481 140 272.889 141.592 272.889 143.556C272.889 145.519 274.481 147.111 276.444 147.111Z" fill="white" stroke="white" stroke-width="2"/>
<path d="M276.445 144.889C277.181 144.889 277.778 144.292 277.778 143.556C277.778 142.82 277.181 142.223 276.445 142.223C275.708 142.223 275.111 142.82 275.111 143.556C275.111 144.292 275.708 144.889 276.445 144.889Z" fill="black"/>
</mask>
<g mask="url(#mask0_523_78)">
</g>
<path d="M267.296 160.602L273.66 154.238M281.674 151.408L279.769 157.123C279.738 157.215 279.686 157.298 279.617 157.365C279.548 157.432 279.463 157.482 279.371 157.509L267.693 160.98C267.587 161.012 267.476 161.013 267.37 160.986C267.263 160.958 267.167 160.901 267.091 160.822C267.014 160.743 266.961 160.645 266.937 160.538C266.912 160.431 266.918 160.319 266.953 160.215L270.745 148.841C270.772 148.76 270.816 148.685 270.875 148.622C270.934 148.559 271.005 148.509 271.085 148.476L276.472 146.258C276.581 146.213 276.702 146.201 276.818 146.224C276.934 146.248 277.041 146.305 277.125 146.388L281.529 150.794C281.607 150.873 281.663 150.972 281.688 151.081C281.714 151.189 281.709 151.303 281.674 151.408Z" stroke="#9D9C9C" stroke-width="1.5" stroke-linecap="round" stroke-linejoin="round"/>
<path d="M281.792 151.056L284.62 148.227C284.995 147.852 285.206 147.344 285.206 146.813C285.206 146.283 284.995 145.775 284.62 145.399L282.5 143.277C282.315 143.092 282.094 142.944 281.851 142.844C281.609 142.743 281.349 142.691 281.086 142.691C280.823 142.691 280.563 142.743 280.32 142.844C280.078 142.944 279.857 143.092 279.671 143.277L276.843 146.106M275.781 152.116C275.642 151.977 275.477 151.867 275.295 151.791C275.113 151.716 274.917 151.677 274.72 151.677C274.523 151.677 274.328 151.716 274.146 151.792C273.964 151.867 273.799 151.978 273.66 152.117C273.521 152.256 273.41 152.422 273.335 152.604C273.259 152.786 273.221 152.981 273.221 153.178C273.221 153.375 273.26 153.57 273.335 153.752C273.41 153.934 273.521 154.099 273.66 154.238C273.942 154.52 274.323 154.678 274.721 154.678C275.119 154.678 275.501 154.519 275.782 154.238C276.063 153.957 276.221 153.575 276.221 153.177C276.221 152.779 276.063 152.398 275.781 152.116Z" stroke="#9D9C9C" stroke-width="1.5" stroke-linecap="round" stroke-linejoin="round"/>
<rect x="428" y="121" width="116" height="105" rx="12" fill="#0B0C0C"/>
<rect x="429" y="122" width="114" height="103" rx="11" stroke="#3C3C3C" stroke-opacity="0.5" stroke-width="2"/>
<path d="M484.03 186H476.109V160.329H484.381C486.871 160.329 489.002 160.843 490.774 161.871C492.545 162.891 493.903 164.357 494.848 166.271C495.792 168.176 496.264 170.457 496.264 173.115C496.264 175.789 495.788 178.091 494.835 180.021C493.882 181.943 492.495 183.422 490.674 184.458C488.852 185.486 486.637 186 484.03 186ZM479.217 183.242H483.83C485.952 183.242 487.711 182.833 489.107 182.014C490.502 181.195 491.543 180.029 492.228 178.517C492.913 177.004 493.256 175.204 493.256 173.115C493.256 171.042 492.917 169.258 492.24 167.762C491.563 166.258 490.552 165.105 489.207 164.303C487.862 163.492 486.186 163.087 484.181 163.087H479.217V183.242Z" fill="#919191" fill-opacity="0.5"/>
<rect width="116" height="105" rx="12" fill="#0B0C0C"/>
<rect x="1" y="1" width="114" height="103" rx="11" stroke="#3C3C3C" stroke-opacity="0.5" stroke-width="2"/>
<path d="M48.1085 65V39.3295H56.7824C58.7962 39.3295 60.4424 39.693 61.7209 40.42C63.0078 41.1386 63.9604 42.1121 64.5788 43.3405C65.1972 44.5689 65.5063 45.9393 65.5063 47.4518C65.5063 48.9643 65.1972 50.3389 64.5788 51.5756C63.9688 52.8123 63.0245 53.7984 61.746 54.5337C60.4675 55.2607 58.8297 55.6242 56.8325 55.6242H50.6154V52.8667H56.7322C58.111 52.8667 59.2182 52.6285 60.0539 52.1522C60.8895 51.6759 61.4953 51.0325 61.8714 50.2219C62.2557 49.403 62.4479 48.4796 62.4479 47.4518C62.4479 46.424 62.2557 45.5048 61.8714 44.6942C61.4953 43.8837 60.8853 43.2486 60.0413 42.789C59.1973 42.321 58.0776 42.0871 56.6821 42.0871H51.2171V65H48.1085Z" fill="#919191" fill-opacity="0.5"/>
<rect x="132" width="177" height="105" rx="12" fill="#0B0C0C"/>
<rect x="133" y="1" width="175" height="103" rx="11" stroke="#3C3C3C" stroke-opacity="0.5" stroke-width="2"/>
<path d="M160.011 72V60.3636H164.602C165.485 60.3636 166.237 60.5322 166.858 60.8693C167.479 61.2027 167.953 61.6667 168.278 62.2614C168.608 62.8523 168.773 63.5341 168.773 64.3068C168.773 65.0795 168.606 65.7614 168.273 66.3523C167.939 66.9432 167.456 67.4034 166.824 67.733C166.195 68.0625 165.434 68.2273 164.54 68.2273H161.614V66.2557H164.142C164.616 66.2557 165.006 66.1742 165.312 66.0114C165.623 65.8447 165.854 65.6155 166.006 65.3239C166.161 65.0284 166.239 64.6894 166.239 64.3068C166.239 63.9205 166.161 63.5833 166.006 63.2955C165.854 63.0038 165.623 62.7784 165.312 62.6193C165.002 62.4564 164.608 62.375 164.131 62.375H162.472V72H160.011ZM169.819 72V63.2727H172.165V64.7955H172.256C172.415 64.2538 172.683 63.8447 173.058 63.5682C173.433 63.2879 173.864 63.1477 174.353 63.1477C174.474 63.1477 174.605 63.1553 174.745 63.1705C174.885 63.1856 175.008 63.2064 175.114 63.233V65.3807C175.001 65.3466 174.844 65.3163 174.643 65.2898C174.442 65.2633 174.258 65.25 174.092 65.25C173.736 65.25 173.417 65.3277 173.137 65.483C172.861 65.6345 172.641 65.8466 172.478 66.1193C172.319 66.392 172.239 66.7064 172.239 67.0625V72H169.819ZM179.396 72.1705C178.514 72.1705 177.75 71.983 177.107 71.608C176.466 71.2292 175.972 70.7027 175.624 70.0284C175.275 69.3504 175.101 68.5644 175.101 67.6705C175.101 66.7689 175.275 65.9811 175.624 65.3068C175.972 64.6288 176.466 64.1023 177.107 63.7273C177.75 63.3485 178.514 63.1591 179.396 63.1591C180.279 63.1591 181.04 63.3485 181.68 63.7273C182.324 64.1023 182.821 64.6288 183.169 65.3068C183.518 65.9811 183.692 66.7689 183.692 67.6705C183.692 68.5644 183.518 69.3504 183.169 70.0284C182.821 70.7027 182.324 71.2292 181.68 71.608C181.04 71.983 180.279 72.1705 179.396 72.1705ZM179.408 70.2955C179.809 70.2955 180.144 70.1818 180.413 69.9545C180.682 69.7235 180.885 69.4091 181.021 69.0114C181.161 68.6136 181.232 68.161 181.232 67.6534C181.232 67.1458 181.161 66.6932 181.021 66.2955C180.885 65.8977 180.682 65.5833 180.413 65.3523C180.144 65.1212 179.809 65.0057 179.408 65.0057C179.002 65.0057 178.661 65.1212 178.385 65.3523C178.112 65.5833 177.906 65.8977 177.766 66.2955C177.629 66.6932 177.561 67.1458 177.561 67.6534C177.561 68.161 177.629 68.6136 177.766 69.0114C177.906 69.4091 178.112 69.7235 178.385 69.9545C178.661 70.1818 179.002 70.2955 179.408 70.2955ZM187.975 72.142C187.312 72.142 186.712 71.9716 186.174 71.6307C185.64 71.286 185.216 70.7803 184.901 70.1136C184.591 69.4432 184.435 68.6212 184.435 67.6477C184.435 66.6477 184.596 65.8163 184.918 65.1534C185.24 64.4867 185.668 63.9886 186.202 63.6591C186.74 63.3258 187.329 63.1591 187.969 63.1591C188.458 63.1591 188.865 63.2424 189.191 63.4091C189.521 63.572 189.786 63.7765 189.987 64.0227C190.191 64.2652 190.346 64.5038 190.452 64.7386H190.526V60.3636H192.941V72H190.555V70.6023H190.452C190.339 70.8447 190.178 71.0852 189.969 71.3239C189.765 71.5587 189.498 71.7538 189.168 71.9091C188.843 72.0644 188.445 72.142 187.975 72.142ZM188.742 70.2159C189.132 70.2159 189.462 70.1098 189.731 69.8977C190.004 69.6818 190.212 69.3807 190.356 68.9943C190.504 68.608 190.577 68.1553 190.577 67.6364C190.577 67.1174 190.505 66.6667 190.362 66.2841C190.218 65.9015 190.009 65.6061 189.737 65.3977C189.464 65.1894 189.132 65.0852 188.742 65.0852C188.344 65.0852 188.009 65.1932 187.737 65.4091C187.464 65.625 187.257 65.9242 187.117 66.3068C186.977 66.6894 186.907 67.1326 186.907 67.6364C186.907 68.1439 186.977 68.5928 187.117 68.983C187.261 69.3693 187.468 69.6723 187.737 69.892C188.009 70.108 188.344 70.2159 188.742 70.2159ZM200.021 68.2841V63.2727H202.442V72H200.118V70.4148H200.027C199.83 70.9261 199.502 71.3371 199.044 71.6477C198.59 71.9583 198.035 72.1136 197.379 72.1136C196.796 72.1136 196.283 71.9811 195.84 71.7159C195.396 71.4508 195.05 71.0739 194.8 70.5852C194.554 70.0966 194.429 69.5114 194.425 68.8295V63.2727H196.845V68.3977C196.849 68.9129 196.987 69.3201 197.26 69.6193C197.533 69.9186 197.898 70.0682 198.357 70.0682C198.648 70.0682 198.921 70.0019 199.175 69.8693C199.429 69.733 199.633 69.5322 199.788 69.267C199.947 69.0019 200.025 68.6742 200.021 68.2841ZM207.815 72.1705C206.921 72.1705 206.152 71.9811 205.508 71.6023C204.868 71.2197 204.375 70.6894 204.031 70.0114C203.69 69.3333 203.519 68.553 203.519 67.6705C203.519 66.7765 203.692 65.9924 204.036 65.3182C204.385 64.6402 204.879 64.1117 205.519 63.733C206.159 63.3504 206.921 63.1591 207.803 63.1591C208.565 63.1591 209.231 63.2973 209.803 63.5739C210.375 63.8504 210.828 64.2386 211.161 64.7386C211.495 65.2386 211.678 65.8258 211.712 66.5H209.428C209.364 66.0644 209.193 65.714 208.917 65.4489C208.644 65.1799 208.286 65.0455 207.843 65.0455C207.468 65.0455 207.14 65.1477 206.86 65.3523C206.584 65.553 206.368 65.8466 206.212 66.233C206.057 66.6193 205.979 67.0871 205.979 67.6364C205.979 68.1932 206.055 68.6667 206.207 69.0568C206.362 69.447 206.58 69.7443 206.86 69.9489C207.14 70.1534 207.468 70.2557 207.843 70.2557C208.12 70.2557 208.368 70.1989 208.587 70.0852C208.811 69.9716 208.995 69.8068 209.139 69.5909C209.286 69.3712 209.383 69.108 209.428 68.8011H211.712C211.675 69.4678 211.493 70.0549 211.167 70.5625C210.845 71.0663 210.4 71.4602 209.832 71.7443C209.264 72.0284 208.591 72.1705 207.815 72.1705ZM217.398 63.2727V65.0909H212.142V63.2727H217.398ZM213.335 61.1818H215.756V69.3182C215.756 69.5417 215.79 69.7159 215.858 69.8409C215.926 69.9621 216.021 70.0473 216.142 70.0966C216.267 70.1458 216.411 70.1705 216.574 70.1705C216.688 70.1705 216.801 70.161 216.915 70.142C217.028 70.1193 217.116 70.1023 217.176 70.0909L217.557 71.892C217.436 71.9299 217.265 71.9735 217.046 72.0227C216.826 72.0758 216.559 72.108 216.244 72.1193C215.661 72.142 215.15 72.0644 214.71 71.8864C214.275 71.7083 213.936 71.4318 213.693 71.0568C213.451 70.6818 213.331 70.2083 213.335 69.6364V61.1818ZM225.62 65.7614L223.404 65.8977C223.366 65.7083 223.285 65.5379 223.16 65.3864C223.035 65.2311 222.87 65.108 222.666 65.017C222.465 64.9223 222.224 64.875 221.944 64.875C221.569 64.875 221.253 64.9545 220.995 65.1136C220.738 65.2689 220.609 65.4773 220.609 65.7386C220.609 65.947 220.692 66.1231 220.859 66.267C221.025 66.411 221.311 66.5265 221.717 66.6136L223.296 66.9318C224.145 67.1061 224.777 67.3864 225.194 67.7727C225.611 68.1591 225.819 68.6667 225.819 69.2955C225.819 69.8674 225.65 70.3693 225.313 70.8011C224.98 71.233 224.522 71.5701 223.938 71.8125C223.359 72.0511 222.69 72.1705 221.933 72.1705C220.777 72.1705 219.857 71.9299 219.171 71.4489C218.489 70.964 218.09 70.3049 217.972 69.4716L220.353 69.3466C220.425 69.6989 220.599 69.9678 220.876 70.1534C221.152 70.3352 221.506 70.4261 221.938 70.4261C222.363 70.4261 222.703 70.3447 222.961 70.1818C223.222 70.0152 223.355 69.8011 223.359 69.5398C223.355 69.3201 223.262 69.1402 223.08 69C222.899 68.8561 222.618 68.7462 222.239 68.6705L220.728 68.3693C219.876 68.1989 219.241 67.9034 218.825 67.483C218.412 67.0625 218.205 66.5265 218.205 65.875C218.205 65.3144 218.357 64.8314 218.66 64.4261C218.967 64.0208 219.397 63.7083 219.95 63.4886C220.506 63.2689 221.158 63.1591 221.904 63.1591C223.006 63.1591 223.874 63.392 224.506 63.858C225.143 64.3239 225.514 64.9583 225.62 65.7614Z" fill="#9D9C9C"/>
<path d="M173.062 18.7578L185.25 24.8516V40.0859L173.062 46.165L160.875 40.0859V24.8516L173.062 18.7578ZM182.218 25.4375L173.062 20.8672L169.532 22.625L178.629 27.2246L182.218 25.4375ZM173.062 30.0078L176.549 28.2793L167.438 23.6797L163.907 25.4375L173.062 30.0078ZM162.75 26.9609V38.9141L172.125 43.6016V31.6484L162.75 26.9609ZM174 43.6016L183.375 38.9141V26.9609L174 31.6484V43.6016Z" fill="#9D9C9C"/>
<rect x="325" width="177" height="105" rx="12" fill="#0B0C0C"/>
<rect x="326" y="1" width="175" height="103" rx="11" stroke="#3C3C3C" stroke-opacity="0.5" stroke-width="2"/>
<path d="M353.011 72V60.3636H357.602C358.481 60.3636 359.231 60.5208 359.852 60.8352C360.477 61.1458 360.953 61.5871 361.278 62.1591C361.608 62.7273 361.773 63.3958 361.773 64.1648C361.773 64.9375 361.606 65.6023 361.273 66.1591C360.939 66.7121 360.456 67.1364 359.824 67.4318C359.195 67.7273 358.434 67.875 357.54 67.875H354.466V65.8977H357.142C357.612 65.8977 358.002 65.8333 358.312 65.7045C358.623 65.5758 358.854 65.3826 359.006 65.125C359.161 64.8674 359.239 64.5473 359.239 64.1648C359.239 63.7784 359.161 63.4527 359.006 63.1875C358.854 62.9223 358.621 62.7216 358.307 62.5852C357.996 62.4451 357.604 62.375 357.131 62.375H355.472V72H353.011ZM359.295 66.7045L362.188 72H359.472L356.642 66.7045H359.295ZM366.796 72.1705C365.898 72.1705 365.126 71.9886 364.478 71.625C363.834 71.2576 363.338 70.7386 362.989 70.0682C362.641 69.3939 362.467 68.5966 362.467 67.6761C362.467 66.7784 362.641 65.9905 362.989 65.3125C363.338 64.6345 363.828 64.1061 364.461 63.7273C365.097 63.3485 365.844 63.1591 366.7 63.1591C367.275 63.1591 367.811 63.2519 368.308 63.4375C368.808 63.6193 369.243 63.8939 369.614 64.2614C369.989 64.6288 370.281 65.0909 370.489 65.6477C370.698 66.2008 370.802 66.8485 370.802 67.5909V68.2557H363.433V66.7557H368.523C368.523 66.4072 368.448 66.0985 368.296 65.8295C368.145 65.5606 367.934 65.3504 367.665 65.1989C367.4 65.0436 367.092 64.9659 366.739 64.9659C366.372 64.9659 366.046 65.0511 365.762 65.2216C365.482 65.3883 365.262 65.6136 365.103 65.8977C364.944 66.178 364.862 66.4905 364.859 66.8352V68.2614C364.859 68.6932 364.938 69.0663 365.097 69.3807C365.26 69.6951 365.489 69.9375 365.785 70.108C366.08 70.2784 366.431 70.3636 366.836 70.3636C367.105 70.3636 367.351 70.3258 367.575 70.25C367.798 70.1742 367.989 70.0606 368.148 69.9091C368.308 69.7576 368.429 69.572 368.512 69.3523L370.751 69.5C370.637 70.0379 370.404 70.5076 370.052 70.9091C369.703 71.3068 369.253 71.6174 368.7 71.8409C368.15 72.0606 367.516 72.1705 366.796 72.1705ZM379.136 65.7614L376.92 65.8977C376.883 65.7083 376.801 65.5379 376.676 65.3864C376.551 65.2311 376.386 65.108 376.182 65.017C375.981 64.9223 375.741 64.875 375.46 64.875C375.085 64.875 374.769 64.9545 374.511 65.1136C374.254 65.2689 374.125 65.4773 374.125 65.7386C374.125 65.947 374.208 66.1231 374.375 66.267C374.542 66.411 374.828 66.5265 375.233 66.6136L376.813 66.9318C377.661 67.1061 378.294 67.3864 378.71 67.7727C379.127 68.1591 379.335 68.6667 379.335 69.2955C379.335 69.8674 379.167 70.3693 378.83 70.8011C378.496 71.233 378.038 71.5701 377.455 71.8125C376.875 72.0511 376.206 72.1705 375.449 72.1705C374.294 72.1705 373.373 71.9299 372.688 71.4489C372.006 70.964 371.606 70.3049 371.489 69.4716L373.869 69.3466C373.941 69.6989 374.116 69.9678 374.392 70.1534C374.669 70.3352 375.023 70.4261 375.455 70.4261C375.879 70.4261 376.22 70.3447 376.477 70.1818C376.739 70.0152 376.871 69.8011 376.875 69.5398C376.871 69.3201 376.778 69.1402 376.597 69C376.415 68.8561 376.134 68.7462 375.756 68.6705L374.244 68.3693C373.392 68.1989 372.758 67.9034 372.341 67.483C371.928 67.0625 371.722 66.5265 371.722 65.875C371.722 65.3144 371.873 64.8314 372.176 64.4261C372.483 64.0208 372.913 63.7083 373.466 63.4886C374.023 63.2689 374.674 63.1591 375.42 63.1591C376.523 63.1591 377.39 63.392 378.023 63.858C378.659 64.3239 379.03 64.9583 379.136 65.7614ZM384.296 72.1705C383.414 72.1705 382.65 71.983 382.006 71.608C381.366 71.2292 380.872 70.7027 380.523 70.0284C380.175 69.3504 380.001 68.5644 380.001 67.6705C380.001 66.7689 380.175 65.9811 380.523 65.3068C380.872 64.6288 381.366 64.1023 382.006 63.7273C382.65 63.3485 383.414 63.1591 384.296 63.1591C385.179 63.1591 385.94 63.3485 386.58 63.7273C387.224 64.1023 387.72 64.6288 388.069 65.3068C388.417 65.9811 388.592 66.7689 388.592 67.6705C388.592 68.5644 388.417 69.3504 388.069 70.0284C387.72 70.7027 387.224 71.2292 386.58 71.608C385.94 71.983 385.179 72.1705 384.296 72.1705ZM384.308 70.2955C384.709 70.2955 385.044 70.1818 385.313 69.9545C385.582 69.7235 385.785 69.4091 385.921 69.0114C386.061 68.6136 386.131 68.161 386.131 67.6534C386.131 67.1458 386.061 66.6932 385.921 66.2955C385.785 65.8977 385.582 65.5833 385.313 65.3523C385.044 65.1212 384.709 65.0057 384.308 65.0057C383.902 65.0057 383.561 65.1212 383.285 65.3523C383.012 65.5833 382.806 65.8977 382.666 66.2955C382.529 66.6932 382.461 67.1458 382.461 67.6534C382.461 68.161 382.529 68.6136 382.666 69.0114C382.806 69.4091 383.012 69.7235 383.285 69.9545C383.561 70.1818 383.902 70.2955 384.308 70.2955ZM395.256 68.2841V63.2727H397.676V72H395.352V70.4148H395.261C395.064 70.9261 394.737 71.3371 394.278 71.6477C393.824 71.9583 393.269 72.1136 392.614 72.1136C392.03 72.1136 391.517 71.9811 391.074 71.7159C390.631 71.4508 390.284 71.0739 390.034 70.5852C389.788 70.0966 389.663 69.5114 389.659 68.8295V63.2727H392.08V68.3977C392.083 68.9129 392.222 69.3201 392.494 69.6193C392.767 69.9186 393.133 70.0682 393.591 70.0682C393.883 70.0682 394.155 70.0019 394.409 69.8693C394.663 69.733 394.867 69.5322 395.023 69.267C395.182 69.0019 395.26 68.6742 395.256 68.2841ZM399.106 72V63.2727H401.452V64.7955H401.543C401.702 64.2538 401.97 63.8447 402.345 63.5682C402.72 63.2879 403.151 63.1477 403.64 63.1477C403.761 63.1477 403.892 63.1553 404.032 63.1705C404.172 63.1856 404.295 63.2064 404.401 63.233V65.3807C404.288 65.3466 404.13 65.3163 403.93 65.2898C403.729 65.2633 403.545 65.25 403.379 65.25C403.023 65.25 402.704 65.3277 402.424 65.483C402.148 65.6345 401.928 65.8466 401.765 66.1193C401.606 66.392 401.526 66.7064 401.526 67.0625V72H399.106ZM408.683 72.1705C407.789 72.1705 407.02 71.9811 406.376 71.6023C405.736 71.2197 405.244 70.6894 404.899 70.0114C404.558 69.3333 404.388 68.553 404.388 67.6705C404.388 66.7765 404.56 65.9924 404.905 65.3182C405.253 64.6402 405.748 64.1117 406.388 63.733C407.028 63.3504 407.789 63.1591 408.672 63.1591C409.433 63.1591 410.1 63.2973 410.672 63.5739C411.244 63.8504 411.697 64.2386 412.03 64.7386C412.363 65.2386 412.547 65.8258 412.581 66.5H410.297C410.233 66.0644 410.062 65.714 409.786 65.4489C409.513 65.1799 409.155 65.0455 408.712 65.0455C408.337 65.0455 408.009 65.1477 407.729 65.3523C407.452 65.553 407.236 65.8466 407.081 66.233C406.926 66.6193 406.848 67.0871 406.848 67.6364C406.848 68.1932 406.924 68.6667 407.075 69.0568C407.231 69.447 407.448 69.7443 407.729 69.9489C408.009 70.1534 408.337 70.2557 408.712 70.2557C408.988 70.2557 409.236 70.1989 409.456 70.0852C409.68 69.9716 409.863 69.8068 410.007 69.5909C410.155 69.3712 410.251 69.108 410.297 68.8011H412.581C412.543 69.4678 412.361 70.0549 412.036 70.5625C411.714 71.0663 411.269 71.4602 410.7 71.7443C410.132 72.0284 409.46 72.1705 408.683 72.1705ZM417.602 72.1705C416.704 72.1705 415.931 71.9886 415.283 71.625C414.64 71.2576 414.143 70.7386 413.795 70.0682C413.446 69.3939 413.272 68.5966 413.272 67.6761C413.272 66.7784 413.446 65.9905 413.795 65.3125C414.143 64.6345 414.634 64.1061 415.266 63.7273C415.903 63.3485 416.649 63.1591 417.505 63.1591C418.081 63.1591 418.617 63.2519 419.113 63.4375C419.613 63.6193 420.049 63.8939 420.42 64.2614C420.795 64.6288 421.086 65.0909 421.295 65.6477C421.503 66.2008 421.607 66.8485 421.607 67.5909V68.2557H414.238V66.7557H419.329C419.329 66.4072 419.253 66.0985 419.102 65.8295C418.95 65.5606 418.74 65.3504 418.471 65.1989C418.206 65.0436 417.897 64.9659 417.545 64.9659C417.177 64.9659 416.852 65.0511 416.568 65.2216C416.287 65.3883 416.068 65.6136 415.908 65.8977C415.749 66.178 415.668 66.4905 415.664 66.8352V68.2614C415.664 68.6932 415.744 69.0663 415.903 69.3807C416.066 69.6951 416.295 69.9375 416.59 70.108C416.886 70.2784 417.236 70.3636 417.641 70.3636C417.91 70.3636 418.157 70.3258 418.38 70.25C418.604 70.1742 418.795 70.0606 418.954 69.9091C419.113 69.7576 419.234 69.572 419.318 69.3523L421.556 69.5C421.443 70.0379 421.21 70.5076 420.857 70.9091C420.509 71.3068 420.058 71.6174 419.505 71.8409C418.956 72.0606 418.321 72.1705 417.602 72.1705ZM429.942 65.7614L427.726 65.8977C427.688 65.7083 427.607 65.5379 427.482 65.3864C427.357 65.2311 427.192 65.108 426.987 65.017C426.787 64.9223 426.546 64.875 426.266 64.875C425.891 64.875 425.574 64.9545 425.317 65.1136C425.059 65.2689 424.93 65.4773 424.93 65.7386C424.93 65.947 425.014 66.1231 425.18 66.267C425.347 66.411 425.633 66.5265 426.038 66.6136L427.618 66.9318C428.466 67.1061 429.099 67.3864 429.516 67.7727C429.932 68.1591 430.141 68.6667 430.141 69.2955C430.141 69.8674 429.972 70.3693 429.635 70.8011C429.302 71.233 428.843 71.5701 428.26 71.8125C427.68 72.0511 427.012 72.1705 426.254 72.1705C425.099 72.1705 424.179 71.9299 423.493 71.4489C422.811 70.964 422.412 70.3049 422.294 69.4716L424.675 69.3466C424.747 69.6989 424.921 69.9678 425.198 70.1534C425.474 70.3352 425.828 70.4261 426.26 70.4261C426.684 70.4261 427.025 70.3447 427.283 70.1818C427.544 70.0152 427.677 69.8011 427.68 69.5398C427.677 69.3201 427.584 69.1402 427.402 69C427.22 68.8561 426.94 68.7462 426.561 68.6705L425.05 68.3693C424.198 68.1989 423.563 67.9034 423.146 67.483C422.734 67.0625 422.527 66.5265 422.527 65.875C422.527 65.3144 422.679 64.8314 422.982 64.4261C423.288 64.0208 423.718 63.7083 424.271 63.4886C424.828 63.2689 425.48 63.1591 426.226 63.1591C427.328 63.1591 428.196 63.392 428.828 63.858C429.465 64.3239 429.836 64.9583 429.942 65.7614Z" fill="#9D9C9C"/>
<path d="M364.901 26.491C365.748 24.0848 369.174 24.0119 370.178 26.2724L370.263 26.4924L371.406 29.7374C371.668 30.4816 372.092 31.1626 372.648 31.7345C373.204 32.3063 373.88 32.7558 374.631 33.0525L374.938 33.1639L378.281 34.2721C380.761 35.0944 380.836 38.4191 378.508 39.394L378.281 39.4765L374.938 40.5861C374.171 40.8403 373.469 41.2511 372.88 41.791C372.29 42.3308 371.827 42.9872 371.521 43.7156L371.406 44.0126L370.264 47.259C369.417 49.6653 365.992 49.7381 364.989 47.479L364.901 47.259L363.759 44.014C363.497 43.2696 363.074 42.5883 362.518 42.0161C361.962 41.444 361.285 40.9944 360.535 40.6975L360.229 40.5861L356.885 39.4779C354.405 38.6556 354.33 35.3309 356.659 34.3574L356.885 34.2721L360.229 33.1639C360.996 32.9096 361.697 32.4986 362.286 31.9588C362.876 31.4189 363.339 30.7627 363.644 30.0344L363.759 29.7374L364.901 26.491ZM367.583 27.3792L366.441 30.6243C366.042 31.759 365.393 32.7958 364.539 33.6623C363.685 34.5288 362.647 35.2043 361.497 35.6416L361.143 35.7668L357.799 36.875L361.143 37.9832C362.312 38.3705 363.38 39.0004 364.273 39.8291C365.165 40.6579 365.861 41.6656 366.312 42.782L366.441 43.1257L367.583 46.3708L368.725 43.1257C369.124 41.991 369.773 40.9542 370.626 40.0877C371.48 39.2212 372.518 38.5457 373.669 38.1084L374.023 37.9846L377.366 36.875L374.023 35.7668C372.854 35.3795 371.786 34.7496 370.893 33.9209C370 33.0921 369.304 32.0844 368.854 30.968L368.726 30.6243L367.583 27.3792ZM378.916 21.75C379.181 21.75 379.441 21.8222 379.666 21.9583C379.891 22.0944 380.072 22.289 380.188 22.52L380.256 22.6809L380.752 24.0916L382.207 24.5729C382.473 24.6605 382.705 24.8226 382.876 25.0387C383.047 25.2549 383.147 25.5153 383.165 25.787C383.183 26.0587 383.117 26.3295 382.977 26.565C382.836 26.8004 382.626 26.99 382.374 27.1097L382.207 27.1758L380.754 27.657L380.258 29.0691C380.167 29.3268 380 29.5527 379.777 29.7181C379.555 29.8835 379.286 29.981 379.006 29.9982C378.726 30.0155 378.447 29.9517 378.205 29.8149C377.962 29.6781 377.767 29.4746 377.644 29.23L377.576 29.0691L377.08 27.6584L375.625 27.1771C375.36 27.0895 375.127 26.9274 374.956 26.7113C374.786 26.4951 374.685 26.2347 374.667 25.963C374.649 25.6913 374.715 25.4205 374.856 25.185C374.996 24.9496 375.206 24.76 375.458 24.6403L375.625 24.5743L377.079 24.093L377.574 22.6809C377.67 22.4092 377.851 22.1734 378.091 22.0064C378.332 21.8395 378.62 21.7498 378.916 21.75Z" fill="#9D9C9C"/>
<rect x="158" y="244" width="116" height="105" rx="12" fill="#0B0C0C"/>
<rect x="159" y="245" width="114" height="103" rx="11" stroke="#3C3C3C" stroke-opacity="0.5" stroke-width="2"/>
<path d="M207.161 309H203.902L213.328 283.329H216.537L225.963 309H222.704L215.033 287.391H214.833L207.161 309ZM208.365 298.972H221.501V301.73H208.365V298.972Z" fill="#919191" fill-opacity="0.5"/>
<rect x="290" y="244" width="116" height="105" rx="12" fill="#0B0C0C"/>
<rect x="291" y="245" width="114" height="103" rx="11" stroke="#3C3C3C" stroke-opacity="0.5" stroke-width="2"/>
<path d="M337.156 309V306.744L348.086 292.705V292.505H337.507V289.747H351.896V292.104L341.267 306.042V306.242H352.247V309H337.156Z" fill="#919191" fill-opacity="0.5"/>
</svg>
